<?xml version="1.0" standalone="no"?><!DOCTYPE svg PUBLIC "-//W3C//DTD SVG 1.1//EN" "http://www.w3.org/Graphics/SVG/1.1/DTD/svg11.dtd"><svg t="1783395038527" class="icon" viewBox="0 0 1024 1024" version="1.1" xmlns="http://www.w3.org/2000/svg" p-id="27188" xmlns:xlink="http://www.w3.org/1999/xlink" width="200" height="200"><path d="M467.533576 730.546424v174.390303h57.902545v-174.390303c-9.619394 0.310303-19.176727 0.620606-28.951273 0.620606-9.774545 0-19.362909-0.310303-28.951272-0.620606zM123.035152 834.094545l51.820606 25.910303 81.392484-162.784969a486.927515 486.927515 0 0 1-54.427151-20.666182L123.035152 834.094545z m613.686303-136.874666l81.392484 162.784969 51.820606-25.910303-78.785939-157.540848c-16.632242 7.571394-34.878061 14.460121-54.427151 20.666182z m-9.805576-369.570909c-12.101818-116.487758-110.778182-207.623758-230.431031-207.623758-119.621818 0-218.360242 91.136-230.43103 207.654788-105.689212 31.340606-175.010909 83.626667-175.010909 142.894545 0 95.945697 181.527273 173.769697 405.441939 173.769697 223.945697 0 405.47297-77.824 405.47297-173.769697 0-59.267879-69.352727-111.553939-175.010909-142.894545zM250.290424 528.446061a43.442424 43.442424 0 1 1 0-86.884849 43.442424 43.442424 0 1 1 0 86.884849z m167.656728-186.492122c5.275152-8.657455 23.58303-7.074909 40.835878 3.475394 17.283879 10.550303 26.996364 26.158545 21.721212 34.78497-5.306182 8.626424-23.58303 7.074909-40.835878-3.506424-17.283879-10.550303-26.996364-26.127515-21.721212-34.75394zM496.484848 586.379636a43.442424 43.442424 0 1 1 0-86.884848 43.442424 43.442424 0 1 1 0 86.884848z m56.692364-209.671757c-17.283879 10.550303-35.560727 12.132848-40.835879 3.506424-5.275152-8.626424 4.406303-24.203636 21.721212-34.753939 17.252848-10.581333 35.529697-12.163879 40.804849-3.506425 5.275152 8.626424-4.437333 24.203636-21.690182 34.75394z m117.077333-6.423273c-21.379879 15.297939-53.434182 27.430788-91.632484 34.753939 10.519273-21.814303 17.749333-46.359273 17.842424-72.238545 0.248242-80.554667-65.039515-100.538182-99.979637-100.538182s-100.38303 19.983515-100.134787 100.538182c0.093091 25.879273 7.323152 50.393212 17.811394 72.207515-38.105212-7.323152-70.128485-19.456-91.446303-34.722909v-18.618182c0-95.821576 77.948121-173.769697 173.769696-173.769697 95.821576 0 173.769697 77.948121 173.769697 173.769697v18.618182z m72.393697 158.161455a43.442424 43.442424 0 1 1 0-86.884849 43.442424 43.442424 0 1 1 0 86.884849z" fill="#2c2c2c" p-id="27189"></path></svg>